<?xml version="1.0" encoding="utf-8"?>
<!-- Generator: $$$/GeneralStr/196=Adobe Illustrator 27.6.0, SVG Export Plug-In . SVG Version: 6.00 Build 0)  -->
<svg version="1.1" id="Calque_1" xmlns="http://www.w3.org/2000/svg" xmlns:xlink="http://www.w3.org/1999/xlink" x="0px" y="0px"
	 viewBox="0 0 517.2 88.5" style="enable-background:new 0 0 517.2 88.5;" xml:space="preserve">
<style type="text/css">
	.st0{fill:#FFFFFF;}
</style>
<g>
	<path class="st0" d="M8.3,53.1c0,4.2,1.6,7.8,4.5,10.8c3,3,6.6,4.5,10.8,4.5c3.9,0,7.4-1.2,10.3-3.9c2.9-2.6,4.6-5.9,4.9-9.9
		c0.1-0.6,0.4-1.2,0.9-1.6c0.5-0.4,1-0.6,1.7-0.5s1.2,0.4,1.6,0.9c0.4,0.5,0.6,1.1,0.6,1.7c-0.5,5.1-2.7,9.4-6.5,12.9
		c-3.8,3.4-8.3,5.1-13.5,5.1c-5.5,0-10.2-1.9-14.1-5.8c-3.9-3.9-5.8-8.6-5.9-14.1V17.2c0-0.6,0.2-1.2,0.7-1.6c0.5-0.5,1-0.7,1.6-0.7
		s1.2,0.2,1.6,0.7c0.5,0.5,0.7,1,0.7,1.6V53.1z M43.6,47.8c0,0.6-0.2,1.2-0.7,1.6c-0.5,0.5-1,0.7-1.6,0.7s-1.2-0.2-1.6-0.7
		c-0.5-0.5-0.7-1-0.7-1.6V17.2c0-0.6,0.2-1.2,0.7-1.6c0.5-0.5,1-0.7,1.6-0.7s1.2,0.2,1.6,0.7c0.5,0.5,0.7,1,0.7,1.6V47.8z"/>
	<path class="st0" d="M62.7,15.5c0.5,0.5,0.7,1,0.7,1.6v53.1c0,0.3-0.1,0.6-0.2,0.9c-0.1,0.3-0.3,0.5-0.5,0.7
		c-0.2,0.2-0.5,0.4-0.8,0.5s-0.6,0.2-0.9,0.2c-0.6,0-1.2-0.2-1.6-0.7c-0.5-0.5-0.7-1-0.7-1.6V17.1c0-0.4,0.1-0.8,0.3-1.2
		c0.2-0.4,0.5-0.7,0.9-0.9c0.4-0.2,0.8-0.3,1.2-0.3C61.7,14.8,62.2,15,62.7,15.5z M66.1,15.9c0.2-0.4,0.5-0.7,0.9-0.9
		c0.4-0.2,0.8-0.3,1.2-0.3h10.6c0.1,0,0.2,0,0.4,0c0.2,0,0.4,0,0.4,0c4.3,0,8,1.5,11.1,4.6s4.6,6.7,4.6,11.1v1
		c-0.3,4.3-2,7.9-5.3,10.7s-7,4.1-11.3,3.9h-5.2l21.2,22.7c0.3,0.3,0.5,0.6,0.5,1s0.1,0.8,0,1.2c-0.1,0.4-0.3,0.7-0.7,1.1
		c-0.5,0.4-1,0.6-1.6,0.6c-0.6,0-1.2-0.3-1.6-0.7L66.4,45.2c-0.4-0.4-0.6-0.8-0.6-1.4c0-0.7,0.2-1.3,0.6-1.8c0.5-0.5,1-0.8,1.7-0.8
		h10.7h0.1c3,0.2,5.7-0.7,7.9-2.7c2.3-2,3.5-4.5,3.7-7.6v-0.7c0-3-1.1-5.6-3.2-7.8s-4.7-3.2-7.7-3.2c-0.3,0-0.5,0-0.8,0.1h-0.1H68.1
		c-0.6,0-1.2-0.2-1.6-0.7c-0.5-0.5-0.7-1-0.7-1.6C65.8,16.7,65.9,16.3,66.1,15.9z"/>
	<path class="st0" d="M112.3,15.5c0.5,0.5,0.7,1,0.7,1.6v53.1c0,0.3-0.1,0.6-0.2,0.9c-0.1,0.3-0.3,0.5-0.5,0.7
		c-0.2,0.2-0.5,0.4-0.8,0.5c-0.3,0.1-0.6,0.2-0.9,0.2c-0.6,0-1.2-0.2-1.6-0.7c-0.5-0.5-0.7-1-0.7-1.7V17.2c0-0.4,0.1-0.8,0.3-1.2
		c0.2-0.4,0.5-0.7,0.9-0.9s0.8-0.3,1.2-0.3C111.3,14.8,111.8,15.1,112.3,15.5z M128.3,41.4h0.2h0.2h0.4c0.3,0,0.6,0,0.8,0
		c2.4-0.1,4.5-1,6.4-2.7c2.3-2,3.5-4.5,3.7-7.6v-0.7c0-3-1.1-5.6-3.2-7.8c-2.2-2.2-4.7-3.2-7.8-3.2c-0.2,0-0.5,0-0.7,0.1h-0.1h-10.7
		c-0.6,0-1.2-0.2-1.6-0.7c-0.5-0.5-0.7-1-0.7-1.6c0-0.3,0-0.5,0.1-0.8c0.1-0.2,0.2-0.4,0.3-0.7c0.1-0.2,0.3-0.4,0.5-0.5
		c0.2-0.1,0.4-0.2,0.7-0.3c0.3-0.1,0.5-0.1,0.7-0.1h10.6c0.1,0,0.2,0,0.4,0c0.2,0,0.4,0,0.4,0c4.3,0,8,1.5,11.1,4.6
		c3.1,3,4.6,6.7,4.6,11.1c0,0.3,0,0.7-0.1,1c-0.3,4.3-2,7.8-5.3,10.7c-0.7,0.6-1.3,1.1-2,1.6c1,0.6,1.9,1.4,2.8,2.2
		c3.1,3,4.6,6.7,4.6,11c0,0.3,0,0.6-0.1,1c-0.2,4.3-2,7.9-5.2,10.8c-3.3,2.9-7,4.2-11.3,4h-10.6c-0.6,0-1.2-0.2-1.6-0.7
		c-0.5-0.5-0.7-1-0.7-1.7s0.2-1.2,0.7-1.6c0.5-0.5,1-0.7,1.6-0.7h10.7h0.1c3,0.2,5.7-0.7,7.9-2.7c2.3-2,3.5-4.5,3.7-7.5V57
		c0-3-1.1-5.6-3.2-7.7c-2-1.9-4.3-3-7-3.2c-0.6,0-1.2,0-1.7,0h-10.5c-0.6,0-1.2-0.2-1.6-0.7c-0.5-0.5-0.7-1-0.7-1.6s0.2-1.2,0.7-1.6
		c0.5-0.5,1-0.7,1.6-0.7H128.3z"/>
	<path class="st0" d="M162.1,70.4c-0.2,0.6-0.6,1.1-1.1,1.4s-1.2,0.4-1.8,0.2s-1.1-0.6-1.4-1.1c-0.3-0.6-0.4-1.2-0.2-1.8l15.9-52.9
		c0.2-0.6,0.6-1.1,1.1-1.4c0.6-0.3,1.2-0.4,1.8-0.2c0.6,0.2,1.1,0.6,1.4,1.1s0.4,1.2,0.2,1.8L162.1,70.4z M188.1,49.8
		c0.6,0,1.2,0.2,1.6,0.7c0.5,0.5,0.7,1,0.7,1.7s-0.2,1.2-0.7,1.6c-0.5,0.5-1,0.7-1.6,0.7h-17.6c-0.6,0-1.2-0.2-1.7-0.7
		c-0.5-0.5-0.7-1-0.7-1.6s0.2-1.2,0.7-1.7c0.5-0.5,1-0.7,1.7-0.7H188.1z M198.2,72c-0.4-0.1-0.7-0.3-1.1-0.5
		c-0.3-0.3-0.5-0.7-0.7-1.1l-15.8-52.9c-0.1-0.5-0.2-0.9-0.1-1.2s0.3-0.7,0.6-1s0.6-0.5,1-0.7c0.6-0.2,1.2-0.1,1.8,0.2
		s1,0.8,1.1,1.4L201,69.1c0.2,0.6,0.1,1.2-0.2,1.8c-0.3,0.6-0.8,1-1.4,1.1C199,72.1,198.6,72.1,198.2,72z"/>
	<path class="st0" d="M218.4,15.5c0.5,0.5,0.7,1,0.7,1.6v53.1c0,0.6-0.2,1.2-0.7,1.7c-0.5,0.5-1,0.7-1.7,0.7s-1.2-0.2-1.6-0.7
		s-0.7-1-0.7-1.7V17.2c0-0.4,0.1-0.8,0.3-1.2s0.5-0.7,0.9-0.9c0.4-0.2,0.8-0.3,1.2-0.3C217.3,14.8,217.9,15.1,218.4,15.5z
		 M224.3,14.9c0.4,0.1,0.7,0.2,1.1,0.5c0.3,0.3,0.5,0.6,0.6,1l17.7,53.1c0.2,0.6,0.2,1.2-0.1,1.8c-0.3,0.6-0.8,1-1.4,1.2
		c-0.6,0.2-1.2,0.2-1.8-0.1c-0.6-0.3-1-0.7-1.1-1.3l-17.7-53.1c-0.2-0.6-0.1-1.2,0.1-1.8c0.3-0.6,0.7-1,1.3-1.1
		C223.5,14.8,223.9,14.8,224.3,14.9z M250.2,15.5c0.5,0.5,0.7,1,0.7,1.6v53.1c0,0.6-0.2,1.2-0.7,1.7s-1,0.7-1.7,0.7
		c-0.6,0-1.2-0.2-1.6-0.7s-0.7-1-0.7-1.7V17.2c0-0.4,0.1-0.8,0.3-1.2s0.5-0.7,0.9-0.9c0.4-0.2,0.8-0.3,1.2-0.3
		C249.2,14.8,249.8,15.1,250.2,15.5z"/>
	<path class="st0" d="M264.6,15.9c0.2-0.4,0.5-0.7,0.9-0.9c0.4-0.2,0.8-0.3,1.2-0.3h31.9c0.4,0,0.8,0.1,1.2,0.3
		c0.4,0.2,0.7,0.5,0.9,0.9s0.3,0.8,0.3,1.2c0,0.6-0.2,1.2-0.7,1.6c-0.5,0.5-1,0.7-1.7,0.7h-31.9c-0.6,0-1.2-0.2-1.6-0.7
		c-0.5-0.5-0.7-1-0.7-1.6C264.3,16.6,264.4,16.2,264.6,15.9z M264.6,69c0.2-0.4,0.5-0.7,0.9-0.9c0.4-0.2,0.8-0.3,1.2-0.3h31.9
		c0.4,0,0.8,0.1,1.2,0.3s0.7,0.5,0.9,0.9s0.3,0.8,0.3,1.2c0,0.6-0.2,1.2-0.7,1.6c-0.5,0.5-1,0.7-1.7,0.7h-31.9
		c-0.6,0-1.2-0.2-1.6-0.7c-0.5-0.5-0.7-1-0.7-1.6C264.3,69.8,264.4,69.4,264.6,69z M284.9,63.1c0,0.6-0.2,1.2-0.7,1.7
		s-1,0.7-1.6,0.7s-1.2-0.2-1.7-0.7c-0.5-0.5-0.7-1-0.7-1.7v-39c0-0.6,0.2-1.2,0.7-1.6c0.5-0.5,1-0.7,1.7-0.7s1.2,0.2,1.6,0.7
		c0.5,0.5,0.7,1,0.7,1.6V63.1z"/>
	<path class="st0" d="M340.6,71.4c-3.2,1.2-6.4,1.8-9.7,1.6c-3.3-0.2-6.6-0.9-9.7-2.3c-2.8-1.2-5.4-2.8-7.7-4.8
		c-0.5-0.4-0.8-0.9-0.8-1.6s0.1-1.2,0.6-1.7c0.4-0.5,1-0.8,1.6-0.8s1.2,0.1,1.7,0.5c2,1.7,4.1,3,6.5,4.1c3.9,1.8,8,2.3,12.1,1.7
		c4.1-0.7,7.4-2.5,10-5.5c0.4-0.5,0.9-0.7,1.6-0.8c0.6-0.1,1.2,0.1,1.7,0.5s0.8,0.9,0.8,1.6c0.1,0.6-0.1,1.2-0.5,1.7
		C346.4,68.2,343.7,70.2,340.6,71.4z M347.5,24.9c-0.4,0.1-0.8,0.2-1.2,0.1c-0.4-0.1-0.8-0.3-1.1-0.5c-1-0.9-2.1-1.7-3.2-2.4
		c-4.3-2.7-8.8-3.9-13.6-3.6c-4.8,0.4-8.7,2.3-11.7,5.7c-0.4,0.5-0.9,0.8-1.6,0.9c-0.6,0.1-1.2-0.1-1.7-0.5c-0.5-0.4-0.8-1-0.8-1.6
		c-0.1-0.7,0.1-1.2,0.5-1.7c2.5-3,5.6-5.1,9.3-6.4s7.4-1.5,11.3-0.9c3.8,0.6,7.4,2,10.8,4.1c1.4,0.9,2.7,1.8,3.8,2.9
		c0.5,0.4,0.8,1,0.8,1.6s-0.2,1.2-0.6,1.7C348.3,24.6,347.9,24.8,347.5,24.9z M321,33.5c1.7,1.5,3.5,2.9,5.3,4
		c1.8,1.1,3.8,2.4,6,3.7s4.2,2.7,6.2,4c1.9,1.3,3.8,2.9,5.7,4.7c1.9,1.9,3.4,3.9,4.7,6c0.2,0.4,0.3,0.8,0.3,1.2s-0.1,0.8-0.3,1.1
		c-0.2,0.4-0.5,0.7-0.9,0.9c-0.5,0.3-1.1,0.4-1.8,0.2s-1.1-0.5-1.4-1.1c-1.1-2-2.8-3.9-4.9-5.7c-2.1-1.8-4.4-3.4-6.8-4.8
		c-2.4-1.4-4.8-2.9-7.3-4.4c-2.5-1.5-4.8-3.3-7.2-5.4c-2.3-2.1-4.2-4.5-5.6-7c-0.3-0.6-0.4-1.2-0.2-1.8c0.2-0.6,0.5-1.1,1.1-1.4
		c0.5-0.3,1.1-0.4,1.8-0.2c0.6,0.2,1.1,0.5,1.4,1.1C317.9,30.4,319.3,32,321,33.5z"/>
	<path class="st0" d="M367.1,70.4c0,0.5-0.2,0.8-0.4,1.2c-0.2,0.3-0.5,0.6-0.9,0.8s-0.8,0.3-1.2,0.2c-0.6,0-1.2-0.3-1.6-0.8
		c-0.4-0.5-0.6-1.1-0.5-1.7l5.3-52.9c0.1-0.6,0.4-1.2,0.9-1.6c0.5-0.4,1.1-0.6,1.7-0.5c0.6,0.1,1.1,0.4,1.5,0.9
		c0.4,0.5,0.6,1.1,0.5,1.7L367.1,70.4z M385.9,29.8l6.7-13.5c0.3-0.5,0.7-0.9,1.3-1.1c0.6-0.2,1.2-0.2,1.8,0.1s1,0.7,1.2,1.3
		s0.2,1.2-0.1,1.8L388.1,36c-0.2,0.4-0.5,0.7-0.9,1c-0.6,0.4-1.2,0.4-1.9,0.2c-0.7-0.2-1.1-0.6-1.4-1.2L375,18.4
		c-0.3-0.6-0.3-1.2-0.1-1.8s0.6-1.1,1.2-1.3c0.6-0.3,1.2-0.3,1.8-0.1c0.6,0.2,1.1,0.6,1.3,1.1L385.9,29.8z M409.4,70
		c0,0.6-0.1,1.2-0.6,1.7c-0.4,0.5-0.9,0.8-1.5,0.8c-0.6,0-1.2-0.1-1.7-0.5c-0.5-0.4-0.8-0.9-0.9-1.6l-5.3-52.9
		c0-0.6,0.1-1.2,0.5-1.7c0.4-0.5,0.9-0.8,1.5-0.9c0.6-0.1,1.2,0.1,1.7,0.5c0.5,0.4,0.8,0.9,0.9,1.6L409.4,70z"/>
	<path class="st0" d="M427.4,15.5c0.5,0.5,0.7,1,0.7,1.6v53.2c0,0.6-0.2,1.2-0.7,1.7c-0.5,0.5-1,0.7-1.7,0.7s-1.2-0.2-1.6-0.7
		s-0.7-1-0.7-1.7V17.1c0-0.4,0.1-0.8,0.3-1.1s0.5-0.6,0.9-0.9c0.4-0.2,0.8-0.3,1.2-0.3C426.4,14.8,427,15,427.4,15.5z M430.8,16
		c0.2-0.3,0.5-0.6,0.9-0.9c0.4-0.2,0.8-0.3,1.2-0.3h24.8c0.6,0,1.2,0.2,1.7,0.7c0.5,0.5,0.7,1,0.7,1.6s-0.2,1.2-0.7,1.6
		s-1,0.7-1.7,0.7h-24.8c-0.3,0-0.6-0.1-0.9-0.2c-0.3-0.1-0.5-0.3-0.7-0.5c-0.2-0.2-0.4-0.5-0.5-0.8c-0.1-0.3-0.2-0.6-0.2-0.9
		C430.5,16.7,430.6,16.3,430.8,16z M457.7,41.4c0.6,0,1.2,0.2,1.7,0.7c0.5,0.5,0.7,1,0.7,1.6s-0.2,1.2-0.7,1.6
		c-0.5,0.5-1,0.7-1.7,0.7h-24.8c-0.6,0-1.2-0.2-1.6-0.7c-0.5-0.5-0.7-1-0.7-1.6s0.2-1.2,0.7-1.6c0.5-0.5,1-0.7,1.6-0.7H457.7z
		 M459.3,72c-0.5,0.5-1,0.7-1.7,0.7h-24.8c-0.6,0-1.2-0.2-1.6-0.7s-0.7-1-0.7-1.7s0.2-1.2,0.7-1.6s1-0.7,1.6-0.7h24.8
		c0.4,0,0.8,0.1,1.2,0.3c0.4,0.2,0.7,0.5,0.9,0.8s0.3,0.7,0.3,1.2C460,71,459.8,71.5,459.3,72z"/>
	<path class="st0" d="M500.4,71.4c-3.2,1.2-6.4,1.8-9.7,1.6c-3.3-0.2-6.6-0.9-9.7-2.3c-2.8-1.2-5.4-2.8-7.7-4.8
		c-0.5-0.4-0.8-0.9-0.8-1.6s0.1-1.2,0.6-1.7s1-0.8,1.6-0.8c0.6,0,1.2,0.1,1.7,0.5c2,1.7,4.1,3,6.5,4.1c3.9,1.8,8,2.3,12.1,1.7
		c4.1-0.7,7.4-2.5,10-5.5c0.4-0.5,0.9-0.7,1.6-0.8c0.6-0.1,1.2,0.1,1.7,0.5s0.8,0.9,0.8,1.6c0.1,0.6-0.1,1.2-0.5,1.7
		C506.3,68.2,503.6,70.2,500.4,71.4z M507.4,24.9c-0.4,0.1-0.8,0.2-1.2,0.1c-0.4-0.1-0.8-0.3-1.1-0.5c-1-0.9-2.1-1.7-3.2-2.4
		c-4.3-2.7-8.8-3.9-13.6-3.6c-4.8,0.4-8.7,2.3-11.7,5.7c-0.4,0.5-0.9,0.8-1.6,0.9c-0.6,0.1-1.2-0.1-1.7-0.5c-0.5-0.4-0.8-1-0.8-1.6
		c-0.1-0.7,0.1-1.2,0.5-1.7c2.5-3,5.6-5.1,9.3-6.4s7.4-1.5,11.3-0.9c3.8,0.6,7.4,2,10.8,4.1c1.4,0.9,2.7,1.8,3.8,2.9
		c0.5,0.4,0.8,1,0.8,1.6s-0.2,1.2-0.6,1.7C508.1,24.6,507.8,24.8,507.4,24.9z M480.8,33.5c1.7,1.5,3.5,2.9,5.3,4
		c1.8,1.1,3.8,2.4,6,3.7s4.2,2.7,6.2,4c1.9,1.3,3.8,2.9,5.7,4.7c1.9,1.9,3.4,3.9,4.7,6c0.2,0.4,0.3,0.8,0.3,1.2s-0.1,0.8-0.3,1.1
		c-0.2,0.4-0.5,0.7-0.9,0.9c-0.5,0.3-1.1,0.4-1.8,0.2s-1.1-0.5-1.4-1.1c-1.1-2-2.8-3.9-4.9-5.7c-2.1-1.8-4.4-3.4-6.8-4.8
		c-2.4-1.4-4.8-2.9-7.3-4.4c-2.5-1.5-4.8-3.3-7.2-5.4c-2.3-2.1-4.2-4.5-5.6-7c-0.3-0.6-0.4-1.2-0.2-1.8c0.2-0.6,0.5-1.1,1.1-1.4
		s1.1-0.4,1.8-0.2c0.6,0.2,1.1,0.5,1.4,1.1C477.8,30.4,479.1,32,480.8,33.5z"/>
</g>
</svg>
