<?xml version="1.0" encoding="utf-8"?>
<!-- Generator: $$$/GeneralStr/196=Adobe Illustrator 27.6.0, SVG Export Plug-In . SVG Version: 6.00 Build 0)  -->
<svg version="1.1" id="Calque_1" xmlns="http://www.w3.org/2000/svg" xmlns:xlink="http://www.w3.org/1999/xlink" x="0px" y="0px"
	 viewBox="0 0 517.2 88.5" style="enable-background:new 0 0 517.2 88.5;" xml:space="preserve">
<g>
	<path d="M49.3,26.4v11h4.9c3.1-6.1,7.5-11,13.5-11c4.3,0,7.5,3.1,7.5,6.5c0,2.8-2.3,5.1-5.1,5.1c-3.9,0-5.5-3.8-8.6-3.8
		c-2.9,0-4,5.3-5.4,8.2h-4v37.8h-6.2v-10h-2.7c-2.6,5.9-6.5,9.1-10.9,10.4c-1.7,0.5-3.5,0.7-5.4,0.7c-9.8,0-16.9-5.8-16.9-14.2V38.4
		l-2.7-2.3H0v-2.2l18.8-7.5v34.5c0,11.4,4.4,15.7,11.1,15.7c0.7,0,1.5-0.1,2.2-0.2c4-0.9,8.4-4.5,11.4-12.2V26.4H49.3z"/>
	<path d="M94.2,70.1h-2.6v10.2h-5.3l-0.1-58.9v-2.6l-2.7-2.3h-7.2v-2.8l18.8-6.9v26.4c4.5-4.8,8-8.1,14.6-8.1
		c14.9,0,23.1,12.5,23.1,28.6c0,16.3-8.6,27.7-23.1,27.7C103.3,81.5,97.2,78.6,94.2,70.1z M95.5,65.7c5.3,12,10.9,11.5,14.3,11.4
		c7.6-0.2,12.7-8.9,12.7-23.3c0-12.5-3.3-24.5-12.7-24.5c-6.7,0-11.6,3.9-14.6,12.6L95.5,65.7z"/>
	<path d="M140.2,52.6c0-16.3,9.8-27.4,24.4-27.4c6.6,0,12,1.8,15.7,5.3l3.9-4h2.7v53.8h-6.2V70.1h-2.7c-3.3,7.1-7.7,11.4-14.2,11.4
		C149.7,81.5,140.2,69.8,140.2,52.6z M164.6,77.1c2,0,4.3-0.9,6.5-2.3c2.4-1.8,4.7-5.1,6.9-10.3v-2.3l-0.2-22.4
		c-0.1-6.7-4.8-11.4-11.9-11.4c-10,0-15.2,9.9-15.2,24.2C150.6,67.4,156.3,77.1,164.6,77.1z"/>
	<path d="M228.8,76.9h6.1l2.3-2.7V45.5c0-11.4-4.4-15.5-11.1-15.5c-5.5,0.4-8.7,3.4-12,12.2c0,0.1-0.1,0.1-0.1,0.2v31.7l2.3,2.7h5.9
		v3.4h-25.6v-3.4h6.1l2.3-2.7V26.4h6.2v9.9h2.7c0.1-0.1,0.1-0.2,0.2-0.5c3.4-7.5,8.1-10.6,15.1-10.6c9.8,0,16.9,5.6,16.9,14.2v34.8
		l2.3,2.7h5.9v3.4h-25.6V76.9z"/>
	<path d="M258.3,76.9h6.1l2.3-2.7V38.4l-2.7-2.3h-7.2v-2.8l18.8-6.9v47.7l2.3,2.7h5.9v3.4h-25.6V76.9z M269,0c3.5,0,6.5,3.1,6.5,6.5
		c0,3.7-2.9,6.6-6.5,6.6s-6.6-2.9-6.6-6.6C262.4,3.1,265.4,0,269,0z"/>
	<path d="M295.9,75.6h-2.1v1.7h-2.9V59.6h3.2c1,11,7.8,18,14.3,18c5.4,0,11.1-5,10.2-10.8c-0.9-4.9-6-7.1-13.1-10
		C296,52.9,290,49.2,290,40.3c0-9.2,7.6-15.1,16.6-15.1c7.2,0,13.5,2.4,15.8,7.8c1.7,4,1.5,8.2-1.7,9.5c-2.6,1.1-5.4-0.2-6.7-2.7
		c-0.6-1.1-1-2.6-0.2-4.9c0.5-4-1.8-6.6-6.7-6.9c-5.9,0-11.3,5.3-9.9,11.1c1.3,5.8,5.8,6.6,9.2,7.8c10.2,3.7,20.2,9.2,20.2,18
		c0,12.1-9.2,16.4-17.5,16.4C302.6,81.5,300.9,79.8,295.9,75.6z"/>
	<path d="M328.9,76.9h4.9l2.3-2.7V26.4h6.2v10.2h2.7c2.9-7.7,10.4-11.4,14.8-11.4c3.7,0,7,1.2,9.3,3.5c2,2,3.3,4.7,3.9,8.1
		c1.3-4,4-7,7.5-9.1c2.8-1.7,6.2-2.6,9.7-2.6c8.1,0,14.3,5.3,14.3,13.2v35.7l2.3,2.7h5.9v3.4h-25.5v-3.4h6.1l2.3-2.7V39.6
		c0-6.5-2.4-8.9-6-8.9c-2.9,0-5.3,0.6-7.5,1.6c-3.4,1.6-6,4.8-6.9,9.9v31.9l2.3,2.7h5.9v3.4h-26.3v-3.4h6.1l2.3-2.7V39.6
		c0-1.8-0.2-3.2-0.6-4.4c-1-3.2-3.1-4.5-6-4.5c-5.6,0-11.3,3.5-14.1,11.7v31.7l2.3,2.7h5.9v3.4h-24.4V76.9z"/>
	<path d="M417.7,52.9c0-15.3,9.7-27.7,24.6-27.7c12.8,0,20.2,9.8,21.8,19.6h10.9c-0.4-1.3-0.6-2.8-0.6-4.5c0-9.2,7.6-15.1,16.6-15.1
		c7.2,0,14.1,2.2,15.8,7.8c3.1,10.2-5,13.5-18.6,14.1c0.9,0.4,1.6,0.7,2.4,1c10.2,3.7,20.2,8.2,20.2,17c0,12.1-9.2,16.4-17.5,16.4
		c-6.4,0-8.1-1.7-13.1-5.9h-2.1v1.7h-2.9V59.6h3.2c1,11,7.8,18,14.3,18c5.4,0,11.1-5,10.2-10.8c-0.9-4.9-6-6.1-13.1-9.1
		c-6.1-2.6-10.8-5.4-13.3-9.5c-2.8,0.1-5.6,0.2-8.2,0.2h-39.6c-1.2,18.4,5.1,28.3,13.7,28.3c5.5,0,14-5.9,17.5-14.9l2.8,1
		c-1.3,9.9-10.4,18.7-20.3,18.7C427.1,81.5,417.7,69,417.7,52.9z M453.8,44.7c0.1-7-2.3-16.2-11.5-16.2c-7.7,0-12.4,7.2-13.7,16.2
		H453.8z M484.4,44.5c13.1-0.7,15.4-4.8,14.9-9.5c-0.4-4-3.1-6.6-8-6.9c-5.9,0-11.3,5.3-9.9,11.1C481.9,41.6,483,43.3,484.4,44.5z"
		/>
</g>
</svg>
